<svg width="41" height="34" viewBox="0 0 41 34" fill="none" xmlns="http://www.w3.org/2000/svg">
<path d="M40.0471 22.5333L37.528 2.81026C37.3487 1.39573 36.137 0.328125 34.7107 0.328125H5.36088C3.93462 0.328125 2.72288 1.39573 2.54355 2.81026L0.0245419 22.5333C-0.00897783 22.8048 -0.00897292 23.0646 0.0295747 23.3143C0.128458 23.978 0.359742 24.5914 0.708346 25.1679C0.921196 25.5249 1.17427 25.8584 1.45416 26.1702C1.62846 26.3646 1.8078 26.5607 2.02232 26.7149C2.25026 26.8808 2.52512 26.9931 2.78657 27.0903C2.87372 27.1154 2.96087 27.1389 3.04802 27.1624H18.4486L17.0626 33.3199C17.0626 33.4641 19.3972 33.5076 20.0291 33.5076H20.0408C20.6743 33.5076 23.0073 33.4641 23.0073 33.3199L21.6229 27.1624H37.0219C37.109 27.1389 37.1962 27.1154 37.2834 27.0903C37.947 26.9009 38.4314 26.4132 38.8538 25.8886C39.2308 25.4227 39.5476 24.9048 39.7688 24.345C39.8962 24.0216 40.0186 23.6646 40.0387 23.3143C40.0789 23.0646 40.0806 22.8048 40.0471 22.5333ZM38.3107 23.202C38.232 23.4249 38.0828 23.6076 37.8934 23.7283C37.7359 23.8305 37.5481 23.8858 37.3537 23.8858H2.71953C2.52511 23.8858 2.33741 23.8305 2.17987 23.7283C1.9888 23.6076 1.83963 23.4249 1.76254 23.202C1.71896 23.078 1.70556 22.9204 1.72903 22.7495L4.24802 3.02647C4.32009 2.46669 4.79943 2.04434 5.36423 2.04434H34.7124C35.2772 2.04434 35.7565 2.46669 35.8286 3.02647L38.3476 22.7495C38.366 22.9204 38.3543 23.0763 38.3107 23.202Z" fill="#88BA7D"/>
<path d="M13.7959 13.029L13.3199 22.7464C13.3099 22.9375 13.154 23.0866 12.9629 23.0866H3.74996C3.5656 23.0866 3.38793 23.033 3.23877 22.9391C3.05776 22.8285 2.9153 22.6576 2.84156 22.4514C2.79966 22.3341 2.78793 22.19 2.80804 22.0308L3.98962 12.967C4.01309 12.7894 4.1656 12.6553 4.34493 12.6553H13.4389C13.6417 12.6536 13.806 12.8246 13.7959 13.029Z" fill="#88BA7D"/>
<path d="M14.2824 3.27801L13.8935 11.2205C13.8835 11.4116 13.7276 11.5607 13.5366 11.5607H4.60023C4.38403 11.5607 4.2181 11.3713 4.24491 11.1568L5.2019 3.81767C5.26894 3.29477 5.72481 2.90259 6.26112 2.90259H13.9254C14.1299 2.90259 14.2924 3.07354 14.2824 3.27801Z" fill="#88BA7D"/>
<path d="M24.9377 11.5607H15.3444C15.1399 11.5607 14.9773 11.3898 14.9874 11.1853L15.3762 3.24281C15.3863 3.05175 15.5421 2.90259 15.7332 2.90259H24.5472C24.7383 2.90259 24.8958 3.05175 24.9042 3.24281L25.293 11.1853C25.3064 11.3898 25.1438 11.5607 24.9377 11.5607Z" fill="#88BA7D"/>
<path d="M25.5124 23.0863H14.771C14.5665 23.0863 14.404 22.9154 14.414 22.7109L14.89 12.9936C14.9 12.8025 15.0559 12.6533 15.247 12.6533H25.0347C25.2258 12.6533 25.3833 12.8025 25.3917 12.9936L25.8677 22.7109C25.8794 22.9154 25.7168 23.0863 25.5124 23.0863Z" fill="#88BA7D"/>
<path d="M37.2571 22.4496C37.1833 22.6574 37.0409 22.8267 36.8599 22.9373C36.7107 23.0329 36.5331 23.0848 36.3487 23.0848H27.3253C27.1342 23.0848 26.9767 22.9357 26.9683 22.7446L26.4923 13.0273C26.4823 12.8228 26.6448 12.6519 26.8493 12.6519H35.7554C35.9347 12.6519 36.0872 12.7859 36.1107 12.9636L37.2939 22.0273C37.3107 22.1882 37.3007 22.3323 37.2571 22.4496Z" fill="#88BA7D"/>
<path d="M35.4975 11.5607H26.7505C26.5594 11.5607 26.4019 11.4116 26.3935 11.2205L26.0047 3.27801C25.9946 3.07354 26.1572 2.90259 26.3616 2.90259H33.8382C34.3745 2.90259 34.8304 3.29644 34.8974 3.81767L35.8544 11.1568C35.8813 11.3713 35.7137 11.5607 35.4975 11.5607Z" fill="#88BA7D"/>
</svg>
