<svg width="25" height="40" viewBox="0 0 25 40" fill="none" xmlns="http://www.w3.org/2000/svg">
<path d="M16.5702 38.8844C15.6677 39.3458 14.7114 39.7143 13.7248 40V32.7316L19.7686 26.6531C20.0392 26.3793 20.0392 25.9348 19.7686 25.6626C19.6341 25.5274 19.4543 25.4581 19.2778 25.4581C19.098 25.4581 18.9198 25.5257 18.7854 25.6626L13.7265 30.7505V22.2448L19.7703 16.1646C20.0408 15.8925 20.0408 15.4479 19.7703 15.1741C19.6358 15.0389 19.456 14.9696 19.2795 14.9696C19.0997 14.9696 18.9215 15.0372 18.787 15.1741L13.7282 20.2637V10.2975C13.7282 9.95774 13.5904 9.6501 13.3685 9.42698C13.1483 9.20216 12.8408 9.06525 12.5029 9.06525C11.8273 9.06525 11.276 9.61967 11.276 10.2975V20.262L6.21716 15.1741C6.0827 15.0389 5.90287 14.9696 5.7264 14.9696C5.54825 14.9696 5.36841 15.0372 5.23396 15.1741C4.96337 15.4479 4.96337 15.8925 5.23396 16.1646L11.2777 22.2431V30.7488L6.21884 25.6626C6.08439 25.5274 5.90455 25.4581 5.72808 25.4581C5.54993 25.4581 5.3701 25.5257 5.23564 25.6626C4.96505 25.9348 4.96505 26.3793 5.23564 26.6531L11.2794 32.7299V40C10.2928 39.7143 9.33652 39.3442 8.43399 38.8844C-6.33425 31.3489 0.401966 6.78161 12.4996 0C24.5989 6.78161 31.3317 31.3489 16.5702 38.8844Z" fill="#88BA7D"/>
</svg>
