<svg width="20" height="41" viewBox="0 0 20 41" fill="none" xmlns="http://www.w3.org/2000/svg">
<path d="M16.2439 30.376H5.34662V37.7168C5.97176 38.2615 8.05838 39.9979 9.80309 40.5157L9.80477 40.856C9.80477 40.9348 9.88019 41.0001 9.97237 41.0001H11.5746C11.6668 41.0001 11.7422 40.9364 11.7422 40.856L11.7439 40.4973C13.8238 39.8839 16.0596 37.7403 16.2439 37.5626V30.376Z" fill="#88BA7D"/>
<path d="M18.4967 12.6815L3.54525 18.1921C2.48938 18.5809 1.35474 17.8854 1.02457 16.6452L0.692725 15.4033C0.36088 14.163 0.954182 12.8306 2.01005 12.4418L16.9615 6.93115C18.0174 6.54232 19.152 7.23786 19.4822 8.47809L19.8141 9.71999C20.1442 10.9602 19.5509 12.2926 18.4967 12.6815Z" fill="#88BA7D"/>
<path d="M18.4967 20.1426C18.0593 20.3035 17.6235 20.4644 17.1861 20.6253C16.1822 20.9957 15.1766 21.3661 14.1727 21.7365C13.0581 22.1471 11.9436 22.5577 10.8308 22.9683C10.0648 23.2499 9.29891 23.5331 8.53298 23.8147C8.46259 23.8398 8.32181 23.8583 8.26483 23.9136C8.13075 24.0443 8.39388 24.2538 8.49108 24.3745C8.49108 24.4734 8.81287 24.7717 8.87656 24.8505C8.98885 24.9879 9.10114 25.1237 9.21175 25.2628C10.5375 26.9186 10.5257 29.3203 10.5911 31.4421C10.6095 32.0388 10.1034 31.8762 9.76986 31.7958C9.23187 31.665 8.69053 31.536 8.17097 31.3198C7.96148 31.2309 7.75198 31.1287 7.53075 31.0969C7.3665 31.0751 7.20225 31.0935 7.03801 31.0784C6.67432 31.0516 6.33074 30.8756 5.99554 30.703C5.96873 30.6896 5.94359 30.6762 5.9218 30.6544C5.88158 30.6092 5.87152 30.5388 5.86314 30.4734C5.72739 29.4226 5.40728 28.3851 4.95309 27.4667C4.70001 26.9538 4.31788 26.5935 3.89051 26.2868C3.57542 26.0605 3.23185 25.8829 2.86649 25.8058C2.75755 25.7823 2.64861 25.7672 2.54134 25.7354C1.82235 25.5259 1.26425 24.9225 1.02291 24.1063L0.692736 22.8661C0.360892 21.6259 0.954191 20.2934 2.00838 19.9029L16.9598 14.3957C18.0157 14.0051 19.1503 14.7024 19.4822 15.9409L19.8123 17.1828C20.1442 18.4231 19.5509 19.7555 18.4967 20.1426Z" fill="#88BA7D"/>
<path d="M16.5838 6.05254L5.8591 10.0045C4.80322 10.3933 3.66858 9.6978 3.33841 8.45758L3.00657 7.21567C2.67472 5.97545 3.26802 4.64304 4.32389 4.25421L15.0486 0.302244C16.1044 -0.0865842 17.2391 0.60895 17.5692 1.84918L17.9011 3.09108C18.2329 4.3313 17.6396 5.66371 16.5838 6.05254Z" fill="#88BA7D"/>
<path d="M13.1001 24.5084C13.1571 24.3709 13.2141 24.2318 13.2711 24.0944C13.4437 23.6821 13.6448 23.3469 14.0051 23.1525C14.3957 22.9413 14.7962 22.8475 15.1984 22.695C15.6376 22.529 16.075 22.3614 16.5141 22.1955C16.6649 22.1385 16.8191 22.0799 16.9767 22.0916C17.2448 22.11 17.4024 22.3782 17.518 22.6363C18.0426 23.8078 17.9336 25.3463 17.2515 26.3955C16.4571 27.619 15.8822 28.9296 15.6862 30.4715C15.6778 30.5369 15.6677 30.6073 15.6275 30.6525C15.6074 30.676 15.5806 30.6894 15.5554 30.7028C15.2202 30.8754 14.8767 31.0514 14.5113 31.0799C14.347 31.0933 14.1828 31.0748 14.0202 31.0983C13.799 31.1285 13.5895 31.2307 13.3783 31.3195C12.8605 31.5357 12.3191 31.6665 11.7794 31.7972C11.6018 31.8408 11.4241 31.8827 11.2415 31.8877C11.2012 31.8894 11.156 31.886 11.1275 31.8525C11.099 31.8207 11.0956 31.7687 11.0956 31.7235C11.0856 31.2525 11.1409 30.8268 11.2465 30.3709C11.7107 28.3564 12.3325 26.3922 13.1001 24.5084Z" fill="#88BA7D"/>
</svg>
