<svg width="11" height="12" viewBox="0 0 11 12" fill="none" xmlns="http://www.w3.org/2000/svg">
<path d="M6.50776 6.00692L10.7909 1.72352C11.0697 1.4449 11.0697 0.994416 10.7909 0.715799C10.5123 0.437182 10.0619 0.437182 9.78324 0.715799L5.49993 4.9992L1.21676 0.715799C0.938014 0.437182 0.487668 0.437182 0.209057 0.715799C-0.0696855 0.994416 -0.0696855 1.4449 0.209057 1.72352L4.49224 6.00692L0.209057 10.2903C-0.0696855 10.5689 -0.0696855 11.0194 0.209057 11.298C0.347906 11.437 0.530471 11.5068 0.712906 11.5068C0.895341 11.5068 1.07778 11.437 1.21676 11.298L5.49993 7.01464L9.78324 11.298C9.92222 11.437 10.1047 11.5068 10.2871 11.5068C10.4695 11.5068 10.652 11.437 10.7909 11.298C11.0697 11.0194 11.0697 10.5689 10.7909 10.2903L6.50776 6.00692Z" fill="#BA7D7D"/>
</svg>
