<svg width="129" height="100" viewBox="0 0 129 100" fill="none" xmlns="http://www.w3.org/2000/svg">
<path d="M105.849 99.8309H128.008V70.2885L117.169 63.285L105.849 55.1143V99.8309Z" fill="white"/>
<path d="M29.9871 78.5333H29.9779L21.8257 99.831H0L41.0204 0.411133H62.0494L103.2 99.831H80.855L72.7028 78.5333L65.9865 61.0339L51.4052 22.9965L36.8146 61.0617L29.9871 78.5333Z" fill="white"/>
<path fill-rule="evenodd" clip-rule="evenodd" d="M128.008 70.2788C123.552 60.246 112.426 54.1318 101.597 52.3624C74.0463 47.8602 56.658 48.7959 37.1112 52.9461C28.0141 54.8822 16.6288 60.5702 12.2192 70.2788C12.2007 70.3066 12.1914 70.3158 12.1914 70.3158C50.1918 65.9618 88.8036 65.6839 128.027 70.3158C128.027 70.3158 128.018 70.3066 128.008 70.2788Z" fill="white"/>
<path fill-rule="evenodd" clip-rule="evenodd" d="M116.947 31.7422C122.922 31.7422 127.776 36.5965 127.776 42.5717C127.776 48.5561 122.922 53.4011 116.947 53.4011C110.962 53.4011 106.117 48.5468 106.117 42.5717C106.117 36.5965 110.971 31.7422 116.947 31.7422Z" fill="white"/>
</svg>
