<svg width="90" height="106" viewBox="0 0 90 106" fill="none" xmlns="http://www.w3.org/2000/svg">
<path fill-rule="evenodd" clip-rule="evenodd" d="M44.3369 36.9929C57.7695 36.9929 68.6731 47.8965 68.6731 61.3383C68.6731 74.7802 57.7695 85.6745 44.3369 85.6745C30.9043 85.6745 19.9914 74.7709 19.9914 61.3383C19.9914 47.9057 30.9043 36.9929 44.3369 36.9929ZM44.3369 16.9922C68.812 16.9922 88.6738 36.8632 88.6738 61.3291C88.6738 85.8042 68.8028 105.666 44.3369 105.666C19.8617 105.666 0 85.7949 0 61.3291C0 36.8632 19.871 16.9922 44.3369 16.9922Z" fill="white"/>
<path fill-rule="evenodd" clip-rule="evenodd" d="M68.71 38.1876C68.71 26.7745 77.9646 17.5199 89.3777 17.5199V0.631836C77.9646 0.631836 68.71 9.88644 68.71 21.2995V38.1876Z" fill="white"/>
<path fill-rule="evenodd" clip-rule="evenodd" d="M89.3781 21.4014C77.9558 21.4014 68.7012 30.656 68.7012 42.0691V105.675C80.1143 105.675 89.3689 96.4202 89.3689 85.0071V21.4014H89.3781Z" fill="white"/>
</svg>
