<svg width="106" height="100" viewBox="0 0 106 100" fill="none" xmlns="http://www.w3.org/2000/svg">
<path d="M105.877 42.4013V42.3735C104.932 29.997 89.7484 26.7269 71.1651 29.1169C71.1373 29.0799 71.1094 29.0428 71.0816 29.0058C64.6525 19.8901 53.3506 15.5176 38.0745 15.5176C25.0866 15.5176 11.9411 18.9915 3.02928 25.3373L11.4872 41.7992C17.379 37.1209 26.2908 34.2491 34.897 34.2491C38.4173 34.2491 41.4095 34.7216 43.9107 35.5924C44.0312 35.6387 44.1609 35.6758 44.2813 35.7221C27.56 41.6602 12.0523 50.6091 4.67824 60.3825C4.65045 60.4195 4.61339 60.4566 4.5856 60.4844C1.44515 64.3567 0 69.1554 0 74.5747C0 88.6188 11.3297 99.1981 30.3577 99.1981C42.2896 99.1981 50.7475 95.2702 55.1293 87.8684V97.9845H77.1866V51.6096C77.1866 51.1464 77.168 50.7017 77.1588 50.2478C69.8681 51.3132 62.1328 52.9344 54.8514 55.3615C54.8884 58.0573 54.5734 61.0402 53.5729 63.9954H53.6193C51.5812 70.4894 44.411 80.5592 36.2495 81.6153C27.0134 82.8103 22.8632 77.8449 22.9559 73.5094C22.9744 72.8424 23.0392 72.1847 23.1597 71.564H23.1689C24.1231 69.7297 25.2718 68.0067 26.578 66.404C29.0886 63.3191 32.2105 60.6419 35.7493 58.3259C40.937 54.9168 47.0234 52.2859 53.4062 50.2478H53.6193C53.6193 50.22 53.6193 50.2015 53.6193 50.183L54.3326 49.9606C61.79 47.6632 69.5994 46.1532 76.8253 45.1712C78.6966 44.9211 80.5308 44.6988 82.3002 44.5135V97.9845H105.868V42.5495C105.868 42.5125 105.877 42.4662 105.868 42.4291C105.877 42.4291 105.877 42.4106 105.877 42.4013Z" fill="white"/>
<path d="M93.9448 22.9013C100.068 22.9013 105.043 17.9266 105.043 11.8032C105.043 5.67976 100.068 0.705078 93.9448 0.705078C87.8214 0.705078 82.8467 5.67976 82.8467 11.8032C82.8467 17.9266 87.8214 22.9013 93.9448 22.9013Z" fill="white"/>
</svg>
