<svg width="121" height="175" viewBox="0 0 121 175" fill="none" xmlns="http://www.w3.org/2000/svg">
<path d="M67.2673 94.6206C52.7244 110.435 14.7163 127.091 0 126.616C6.82822 113.551 40.0957 88.5889 61.0108 83.752C60.9979 83.9061 60.9979 84.0603 60.9979 84.2209C60.9979 88.7302 63.5417 92.6486 67.2673 94.6206Z" fill="white"/>
<path d="M81.3168 84.2173C81.3168 88.9322 77.4755 92.767 72.7607 92.767C68.0458 92.767 64.2109 88.9322 64.2109 84.2173C64.2109 79.5024 68.0458 75.6611 72.7607 75.6611C77.4755 75.6611 81.3168 79.5024 81.3168 84.2173Z" fill="white"/>
<path d="M79.073 74.288C77.2487 73.1254 75.0839 72.4509 72.7586 72.4509C70.4654 72.4509 68.3264 73.1061 66.5214 74.2431C60.1878 53.7135 64.9669 12.4745 72.8036 0C80.6403 12.4873 85.4258 53.7777 79.073 74.288Z" fill="white"/>
<path d="M145.525 126.616C130.802 127.091 92.7943 110.435 78.2578 94.6206C81.9899 92.6486 84.5272 88.7302 84.5272 84.2209C84.5272 84.0603 84.5272 83.9061 84.5143 83.752C105.436 88.5889 138.69 113.551 145.525 126.616Z" fill="white"/>
<path d="M84.155 172.812C84.155 174.122 75.2134 174.507 72.7853 174.507H72.7403C70.3122 174.507 61.3643 174.122 61.3643 172.812L68.3338 99.4677C68.3338 98.228 70.0938 97.2002 72.3421 97.091L72.7917 97.0781C72.9266 97.0781 73.0615 97.0846 73.19 97.091C75.4318 97.2002 77.1983 98.228 77.1983 99.4677L84.155 172.812Z" fill="white"/>
</svg>
